<?xml version="1.0" encoding="iso-8859-1"?>
<!-- Generator: Adobe Illustrator 19.0.0, SVG Export Plug-In . SVG Version: 6.00 Build 0)  -->
<svg version="1.1" id="Layer_1" xmlns="http://www.w3.org/2000/svg" xmlns:xlink="http://www.w3.org/1999/xlink"
	 viewBox="0 0 512 512" style="enable-background:new 0 0 512 512;" xml:space="preserve">
<g>
	<g>
		<path d="M404.072,220.29c3.919,0.492,7.856,0.749,11.799,0.749c11.925,0,23.877-2.252,35.331-6.765
			c22.215-8.753,40.291-25.472,50.897-47.078c10.61-21.613,12.775-46.139,6.097-69.059c-13.022-44.687-55.996-73.63-102.181-68.826
			c-4.129,0.429-7.585,3.318-8.74,7.305c-1.156,3.987,0.22,8.276,3.479,10.847c11.269,8.891,19.739,20.761,24.495,34.33
			c9.454,26.969,2.618,57.202-16.916,77.561c-3.974-4.814-7.088-10.32-9.186-16.304c-6.557-18.706-2.24-39.371,11.265-53.929
			c2.887-3.112,3.545-7.687,1.651-11.486c-1.894-3.799-5.951-6.022-10.165-5.596c-5.793,0.593-11.492,1.86-16.939,3.77
			c-24.566,8.611-42.426,28.978-47.777,54.481c-5.512,26.272,3.406,52.61,24.468,72.261c6.385,5.957,13.893,10.409,22.086,13.164
			c-2.467,4.614-7.244,10.959-16.473,17.538c-0.774-0.635-1.551-1.268-2.344-1.892c-19.089-15.032-42.23-25.647-67.435-31.198
			l2.907-12.404c10.459-3.521,18.016-13.414,18.016-25.044c0-14.57-11.853-26.424-26.424-26.424
			c-14.57,0-26.424,11.853-26.424,26.424c0,10.184,5.794,19.035,14.256,23.445l-2.509,10.705c-7.01-0.765-14.128-1.163-21.32-1.163
			c-7.193,0-14.313,0.398-21.323,1.163l-2.509-10.705c8.461-4.41,14.256-13.26,14.256-23.444c0-14.57-11.853-26.424-26.424-26.424
			s-26.424,11.853-26.424,26.424c0,11.631,7.557,21.523,18.016,25.044l2.908,12.405c-25.202,5.551-48.343,16.167-67.432,31.198
			c-0.787,0.62-1.562,1.249-2.331,1.881c-9.218-6.575-13.991-12.916-16.456-17.527c8.194-2.756,15.702-7.207,22.085-13.163
			c21.061-19.651,29.979-45.989,24.468-72.262c-5.35-25.503-23.211-45.869-47.776-54.48c-5.447-1.909-11.147-3.178-16.939-3.77
			c-4.228-0.43-8.273,1.797-10.165,5.596c-1.893,3.799-1.235,8.374,1.651,11.486c13.506,14.557,17.822,35.222,11.264,53.928
			c-2.1,5.99-5.218,11.5-9.196,16.317c-19.58-20.365-26.412-50.461-16.908-77.571c4.756-13.569,13.227-25.44,24.496-34.33
			c3.259-2.571,4.635-6.86,3.479-10.847c-1.156-3.987-4.611-6.875-8.74-7.306C59.8,24.505,16.826,53.449,3.805,98.136
			c-6.678,22.92-4.514,47.446,6.096,69.059c10.606,21.606,28.683,38.325,50.897,47.078c11.455,4.513,23.404,6.765,35.331,6.765
			c3.942,0,7.882-0.255,11.8-0.748c2.891,7.225,8.99,17.266,21.815,27.215c-13.416,14.91-22.438,31.92-26.544,50.022
			c-28.493,0.033-52.94-0.194-64.163-11.4c-5.461-5.451-8.114-13.98-8.114-26.071c0-5.633-4.566-10.199-10.199-10.199
			c-5.633,0-10.199,4.566-10.199,10.199c0,17.783,4.612,31.032,14.1,40.505c16.532,16.506,43.626,17.366,75.207,17.366
			c0.284,0,0.574-0.001,0.858-0.001c-0.016,0.752-0.035,1.502-0.035,2.256c0,8.555,1.066,16.97,3.137,25.151
			c-22.07,0.548-40.16,2.773-54.789,9.454c-21.497,9.818-32.395,28.439-32.395,55.349c0,5.633,4.566,10.199,10.199,10.199
			c5.633,0,10.199-4.566,10.199-10.199c0-36.504,23.968-44.026,74.216-44.528c5.419,11.135,12.864,21.611,22.173,31.146
			c-33.39,9.287-57.973,39.944-57.973,76.253c0,5.633,4.566,10.199,10.199,10.199s10.199-4.566,10.199-10.199
			c0-32.257,26.131-58.517,58.335-58.745c28.233,19.661,64.027,30.411,101.828,30.411c37.799,0,73.592-10.749,101.825-30.409
			c18.981,0.137,36.795,9.472,47.72,25.049c1.985,2.829,5.146,4.344,8.359,4.344c2.022,0,4.065-0.601,5.847-1.85
			c4.611-3.234,5.728-9.595,2.493-14.206c-10.657-15.195-26.184-25.985-43.652-30.85c9.307-9.534,16.751-20.008,22.169-31.141
			c50.245,0.503,74.212,8.026,74.212,44.528c0,5.633,4.567,10.199,10.199,10.199s10.199-4.566,10.199-10.199
			c0-26.908-10.9-45.53-32.396-55.349c-14.628-6.68-32.716-8.905-54.785-9.454c2.071-8.181,3.137-16.595,3.137-25.151
			c0-0.754-0.018-1.505-0.035-2.256c0.282,0,0.571,0.001,0.854,0.001c31.58,0,58.678-0.861,75.207-17.366
			c9.488-9.473,14.1-22.723,14.1-40.505c0-5.633-4.567-10.199-10.199-10.199s-10.199,4.566-10.199,10.199
			c0,12.091-2.655,20.619-8.114,26.071c-11.222,11.205-35.669,11.431-64.158,11.4c-4.105-18.095-13.122-35.101-26.532-50.008
			C395.077,237.567,401.18,227.518,404.072,220.29z M446.364,132.725c5.338-19.025,4.694-38.971-1.864-57.68
			c-3.036-8.66-7.265-16.779-12.538-24.143c26.523,5.759,48.688,25.617,56.65,52.942c10.812,37.104-8.905,77.276-44.888,91.453
			c-5.815,2.292-11.793,3.836-17.823,4.65c3.29-8.957,1.988-18.549-3.216-26.083C433.859,162.389,441.984,148.332,446.364,132.725z
			 M86.09,199.926c-6.027-0.815-12.002-2.34-17.816-4.629c-35.98-14.178-55.697-54.349-44.886-91.453
			c7.962-27.326,30.124-47.183,56.65-52.942c-5.273,7.366-9.501,15.483-12.538,24.143c-12.118,34.57-3.309,72.968,21.811,98.823
			C84.113,181.395,82.81,190.976,86.09,199.926z M114.724,198.082l-0.794,0.115c-5.682,0.797-7.964-3.498-8.53-4.832
			c-0.589-1.391-2.146-6.217,2.575-9.904c11.104-8.672,19.448-20.314,24.128-33.664c5.666-16.165,5.462-33.385-0.043-48.937
			c11.621,7.624,19.841,19.538,22.795,33.616c4.011,19.119-2.703,38.495-18.42,53.159
			C130.435,193.234,122.928,196.847,114.724,198.082z M291.982,156.684c3.323,0,6.026,2.703,6.026,6.026s-2.703,6.026-6.026,6.026
			s-6.026-2.703-6.026-6.026C285.956,159.388,288.659,156.684,291.982,156.684z M213.959,162.71c0-3.322,2.703-6.026,6.026-6.026
			c3.322,0,6.026,2.703,6.026,6.026s-2.703,6.026-6.026,6.026S213.959,166.033,213.959,162.71z M390.917,320.184
			c0,57.396-60.53,104.091-134.931,104.091c-74.402,0.001-134.931-46.695-134.931-104.09c0-47.546,41.538-87.748,98.088-100.147
			l6.123,26.122c1.103,4.702,5.292,7.875,9.922,7.875c0.771,0,1.553-0.088,2.337-0.271c5.484-1.285,8.889-6.773,7.603-12.257
			l-5.771-24.622c5.451-0.519,11-0.79,16.63-0.79c5.629,0,11.177,0.271,16.627,0.79l-5.771,24.622
			c-1.285,5.484,2.118,10.972,7.602,12.257c0.783,0.184,1.566,0.271,2.337,0.271c4.628,0,8.819-3.173,9.922-7.875l6.122-26.123
			C349.378,232.434,390.917,272.637,390.917,320.184z M375.566,187.633c-15.718-14.663-22.432-34.039-18.421-53.158
			c2.954-14.079,11.174-25.994,22.795-33.617c-5.505,15.554-5.711,32.773-0.043,48.938c4.679,13.351,13.023,24.991,24.128,33.664
			c4.722,3.687,3.166,8.513,2.575,9.904c-0.565,1.334-2.839,5.627-8.525,4.832l-0.802-0.116
			C389.074,196.847,381.568,193.234,375.566,187.633z"/>
	</g>
</g>
<g>
	<g>
		<path d="M436,463.711c-0.654-5.595-5.718-9.598-11.317-8.944c-5.594,0.656-9.598,5.722-8.943,11.317
			c0.267,2.282,0.403,4.611,0.403,6.926c0,5.633,4.567,10.199,10.199,10.199s10.199-4.566,10.199-10.199
			C436.542,469.906,436.359,466.777,436,463.711z"/>
	</g>
</g>
<g>
</g>
<g>
</g>
<g>
</g>
<g>
</g>
<g>
</g>
<g>
</g>
<g>
</g>
<g>
</g>
<g>
</g>
<g>
</g>
<g>
</g>
<g>
</g>
<g>
</g>
<g>
</g>
<g>
</g>
</svg>
