<svg width="500" height="500" viewBox="0 0 500 500" fill="none" xmlns="http://www.w3.org/2000/svg">
<path d="M232.077 268.352C257 268.352 277.204 248.821 277.204 224.729C277.204 200.637 257 181.106 232.077 181.106C207.155 181.106 186.951 200.637 186.951 224.729C186.951 248.821 207.155 268.352 232.077 268.352Z" fill="#2B2200"/>
<path d="M216.709 165.123L179.529 174.722L158.529 143.744L182.731 115L218.689 128.212L216.709 165.123ZM144.317 172.397L175.446 195.212L163.367 231.869L124.773 231.707L113 194.951L144.317 172.397ZM127.936 257.956L165.842 246.465L188.318 279.52L164.305 311.441L126.987 298.114L127.936 257.956ZM256.458 327.988L222.923 349.157L192.061 324.374L206.524 287.889L246.323 290.123L256.458 327.988ZM277.936 179.17L241.697 166.535L242.515 128.167L279.259 117.089L301.15 148.611L277.936 179.17ZM286.751 188.949L324.515 174.798L350.862 203.36L329.38 235.165L289.758 226.259L286.751 188.949ZM296.443 317.054L268.636 289.515L284.545 252.736L322.184 257.545L329.535 297.296L296.443 317.054Z" fill="#FFCC00"/>
</svg>
